<svg version="1.1" id="Layer_1" xmlns="http://www.w3.org/2000/svg" xmlns:xlink="http://www.w3.org/1999/xlink" x="0px" y="0px"
	 width="100%" viewBox="0 0 512 512" enable-background="new 0 0 512 512" xml:space="preserve">
<path fill="#000000" opacity="1.000000" stroke="none" 
	d="
M1.000000,196.000000 
	C1.000000,130.666672 1.000000,65.833336 1.000000,1.000000 
	C171.666672,1.000000 342.333344,1.000000 513.000000,1.000000 
	C513.000000,171.666672 513.000000,342.333344 513.000000,513.000000 
	C342.333344,513.000000 171.666672,513.000000 1.000000,513.000000 
	C1.000000,407.500000 1.000000,302.000000 1.000000,196.000000 
M447.020844,268.391541 
	C450.434021,259.207123 452.206512,249.591431 450.782928,239.989960 
	C448.136230,222.138565 444.548859,204.427063 441.379364,186.652634 
	C437.889771,167.082840 434.615692,147.471451 430.806976,127.964249 
	C430.002197,123.842453 431.618835,122.442863 434.535156,120.685677 
	C449.616943,111.598282 464.666107,102.453743 479.609741,93.141510 
	C485.698242,89.347420 486.861664,85.839050 485.410095,78.699921 
	C485.179871,77.567574 485.047485,76.401474 485.008484,75.246292 
	C484.667206,65.141594 481.755920,61.786270 471.689209,60.021618 
	C451.946869,56.560867 432.189026,53.186703 412.461884,49.641415 
	C387.678864,45.187496 362.931946,40.532444 338.147919,36.084129 
	C310.107605,31.051371 281.956879,26.585533 254.025787,21.012983 
	C239.818588,18.178495 226.710861,18.811783 214.222183,26.461922 
	C190.565628,40.953125 166.914490,55.453453 143.213791,69.872215 
	C106.172333,92.407097 69.224419,115.101540 31.926374,137.204437 
	C23.456532,142.223694 18.885675,147.640045 21.941223,157.621078 
	C22.268360,158.689667 21.978910,159.941315 22.010422,161.107101 
	C22.183355,167.504837 25.725040,171.758774 31.984301,172.949356 
	C37.679340,174.032608 43.452877,174.779816 49.060856,176.194351 
	C50.612385,176.585724 52.707516,178.747665 52.828075,180.236893 
	C53.510696,188.669037 53.838531,197.141083 53.964207,205.604355 
	C54.132442,216.933655 53.719639,228.277710 54.129265,239.594681 
	C54.327118,245.060989 52.885571,247.977768 47.566246,250.427597 
	C27.641533,259.604034 20.271519,291.832428 41.786793,305.563049 
	C42.751541,306.178711 43.857742,307.783630 43.710835,308.746674 
	C41.841778,320.998901 40.547115,333.417267 37.531300,345.396851 
	C33.401577,361.801178 25.515240,376.683838 15.940482,390.664429 
	C10.448011,398.684235 12.204545,406.175262 20.199587,411.084625 
	C29.402418,416.735535 38.575089,422.436340 47.722683,428.176300 
	C58.477039,434.924500 65.261986,433.001556 71.122681,421.780884 
	C80.841797,403.172943 87.191963,383.654663 89.206627,362.619690 
	C90.937241,344.550598 89.967300,326.824768 85.130295,309.368103 
	C84.224350,306.098572 84.429718,304.018707 86.894501,301.459320 
	C105.317566,282.329529 93.176590,251.451660 70.720764,246.985550 
	C67.290100,246.303253 65.900719,244.777512 65.883018,240.947998 
	C65.798447,222.653183 65.312752,204.360413 65.017693,186.066147 
	C64.981865,183.844894 65.235893,181.618973 65.374855,179.037323 
	C73.216125,180.432571 80.337311,181.934250 87.532097,182.869812 
	C90.609184,183.269913 91.620377,184.309113 92.172554,187.347946 
	C97.325844,215.708206 102.347130,244.100098 108.106430,272.340088 
	C112.450752,293.641968 112.719307,316.132965 125.315460,334.757538 
	C121.143944,337.684387 117.022507,340.133484 113.414932,343.189209 
	C101.996101,352.861359 98.318367,366.081451 98.162712,380.248840 
	C98.042824,391.160492 98.546059,402.207336 100.172249,412.982788 
	C103.451508,434.711792 110.423141,455.326141 122.903641,473.639191 
	C133.183014,488.722534 146.921555,497.305969 166.010513,493.895782 
	C169.078491,493.347687 171.979324,491.911774 174.993149,491.004974 
	C196.624863,484.496521 218.143631,477.566559 239.943222,471.677216 
	C256.794006,467.124817 272.824280,459.809113 290.565491,458.082611 
	C304.703979,456.706726 318.666168,453.473022 332.687042,450.955078 
	C339.305878,449.766388 345.879120,447.210938 352.472565,447.212341 
	C369.060883,447.215851 385.644562,448.479645 402.238342,448.942749 
	C420.859497,449.462402 439.495331,449.477814 458.114136,450.054901 
	C471.327820,450.464478 480.855133,444.434906 487.491821,433.701141 
	C501.597931,410.886749 503.849304,385.922424 499.102814,360.176178 
	C495.422913,340.215576 486.922760,321.992584 477.206909,304.262115 
	C470.894501,292.742615 461.479492,287.004547 448.558624,287.094452 
	C444.355652,287.123657 440.159882,288.188904 436.370087,288.722656 
	C439.839081,282.223724 443.330048,275.683655 447.020844,268.391541 
z"/>
<path fill="#201F28" opacity="1.000000" stroke="none" 
	d="
M446.920929,268.767548 
	C443.330048,275.683655 439.839081,282.223724 436.370087,288.722656 
	C440.159882,288.188904 444.355652,287.123657 448.558624,287.094452 
	C461.479492,287.004547 470.894501,292.742615 477.206909,304.262115 
	C486.922760,321.992584 495.422913,340.215576 499.102814,360.176178 
	C503.849304,385.922424 501.597931,410.886749 487.491821,433.701141 
	C480.855133,444.434906 471.327820,450.464478 458.114136,450.054901 
	C439.495331,449.477814 420.859497,449.462402 402.238342,448.942749 
	C385.644562,448.479645 369.060883,447.215851 352.472565,447.212341 
	C345.879120,447.210938 339.305878,449.766388 332.687042,450.955078 
	C318.666168,453.473022 304.703979,456.706726 290.565491,458.082611 
	C272.824280,459.809113 256.794006,467.124817 239.943222,471.677216 
	C218.143631,477.566559 196.624863,484.496521 174.993149,491.004974 
	C171.979324,491.911774 169.078491,493.347687 166.010513,493.895782 
	C146.921555,497.305969 133.183014,488.722534 122.903641,473.639191 
	C110.423141,455.326141 103.451508,434.711792 100.172249,412.982788 
	C98.546059,402.207336 98.042824,391.160492 98.162712,380.248840 
	C98.318367,366.081451 101.996101,352.861359 113.414932,343.189209 
	C117.022507,340.133484 121.143944,337.684387 125.315460,334.757538 
	C112.719307,316.132965 112.450752,293.641968 108.106430,272.340088 
	C102.347130,244.100098 97.325844,215.708206 92.172554,187.347946 
	C91.620377,184.309113 90.609184,183.269913 87.532097,182.869812 
	C80.337311,181.934250 73.216125,180.432571 65.374855,179.037323 
	C65.235893,181.618973 64.981865,183.844894 65.017693,186.066147 
	C65.312752,204.360413 65.798447,222.653183 65.883018,240.947998 
	C65.900719,244.777512 67.290100,246.303253 70.720764,246.985550 
	C93.176590,251.451660 105.317566,282.329529 86.894501,301.459320 
	C84.429718,304.018707 84.224350,306.098572 85.130295,309.368103 
	C89.967300,326.824768 90.937241,344.550598 89.206627,362.619690 
	C87.191963,383.654663 80.841797,403.172943 71.122681,421.780884 
	C65.261986,433.001556 58.477039,434.924500 47.722683,428.176300 
	C38.575089,422.436340 29.402418,416.735535 20.199587,411.084625 
	C12.204545,406.175262 10.448011,398.684235 15.940482,390.664429 
	C25.515240,376.683838 33.401577,361.801178 37.531300,345.396851 
	C40.547115,333.417267 41.841778,320.998901 43.710835,308.746674 
	C43.857742,307.783630 42.751541,306.178711 41.786793,305.563049 
	C20.271519,291.832428 27.641533,259.604034 47.566246,250.427597 
	C52.885571,247.977768 54.327118,245.060989 54.129265,239.594681 
	C53.719639,228.277710 54.132442,216.933655 53.964207,205.604355 
	C53.838531,197.141083 53.510696,188.669037 52.828075,180.236893 
	C52.707516,178.747665 50.612385,176.585724 49.060856,176.194351 
	C43.452877,174.779816 37.679340,174.032608 31.984301,172.949356 
	C25.725040,171.758774 22.183355,167.504837 22.010422,161.107101 
	C21.978910,159.941315 22.268360,158.689667 21.941223,157.621078 
	C18.885675,147.640045 23.456532,142.223694 31.926374,137.204437 
	C69.224419,115.101540 106.172333,92.407097 143.213791,69.872215 
	C166.914490,55.453453 190.565628,40.953125 214.222183,26.461922 
	C226.710861,18.811783 239.818588,18.178495 254.025787,21.012983 
	C281.956879,26.585533 310.107605,31.051371 338.147919,36.084129 
	C362.931946,40.532444 387.678864,45.187496 412.461884,49.641415 
	C432.189026,53.186703 451.946869,56.560867 471.689209,60.021618 
	C481.755920,61.786270 484.667206,65.141594 485.008484,75.246292 
	C485.047485,76.401474 485.179871,77.567574 485.410095,78.699921 
	C486.861664,85.839050 485.698242,89.347420 479.609741,93.141510 
	C464.666107,102.453743 449.616943,111.598282 434.535156,120.685677 
	C431.618835,122.442863 430.002197,123.842453 430.806976,127.964249 
	C434.615692,147.471451 437.889771,167.082840 441.379364,186.652634 
	C444.548859,204.427063 448.136230,222.138565 450.782928,239.989960 
	C452.206512,249.591431 450.434021,259.207123 446.920929,268.767548 
M294.082642,394.776611 
	C298.183929,411.369629 299.303741,428.116455 296.000092,445.573029 
	C308.963715,443.254852 321.182007,441.069946 333.517517,438.864105 
	C335.590149,419.502106 334.880585,400.661163 330.809753,381.196472 
	C325.880249,366.809753 320.914276,352.435364 316.053131,338.025604 
	C315.117706,335.252747 313.493408,334.639618 310.779144,335.156067 
	C306.379852,335.993195 301.922150,336.519684 297.495087,337.215332 
	C289.584808,338.458374 281.679016,339.729736 274.661346,340.847534 
	C281.271149,358.885345 287.701782,376.434082 294.082642,394.776611 
M284.169952,402.147552 
	C280.589142,382.475067 272.094727,364.608032 263.597168,346.768463 
	C263.073944,345.669922 260.627258,344.981049 259.063751,344.959595 
	C229.289978,344.550690 199.514481,344.266907 169.739090,343.983521 
	C168.872833,343.975281 168.003860,344.254089 166.645294,344.481049 
	C180.307938,357.459564 188.476547,372.879150 191.530304,390.720947 
	C193.233490,400.671967 193.540024,410.862030 194.296341,421.873047 
	C193.655716,439.541534 195.810089,457.514191 188.153976,474.419312 
	C188.873184,474.533020 189.211136,474.693359 189.476379,474.613190 
	C220.200912,465.329254 250.927719,456.052399 281.612885,446.639984 
	C282.911987,446.241486 284.548950,444.723694 284.802399,443.477905 
	C287.554077,429.951050 287.610779,416.422577 284.169952,402.147552 
M342.854004,383.868408 
	C345.460754,400.668427 346.909180,417.531158 345.176758,435.872864 
	C351.846039,435.872864 358.131470,435.728149 364.408447,435.897491 
	C394.553253,436.710693 424.704712,437.386414 454.834290,438.596436 
	C465.497711,439.024689 473.091827,435.373749 478.393890,426.111725 
	C488.946625,407.677429 491.590363,387.899719 488.557709,367.232971 
	C485.437836,345.971680 476.083282,326.981293 466.017334,308.343262 
	C463.288757,303.291107 458.727417,300.248596 452.094879,298.978302 
	C448.332703,299.346497 444.390808,299.113953 440.836639,300.177368 
	C410.962524,309.115631 381.158630,318.288574 351.335602,327.397430 
	C343.304657,329.850342 335.280487,332.325470 328.399841,334.438263 
	C333.363190,351.036713 338.144012,367.024841 342.854004,383.868408 
M190.803452,117.061516 
	C199.574188,114.514832 208.391693,112.112144 217.073395,109.291412 
	C218.674286,108.771278 220.394470,106.770576 220.923615,105.094597 
	C224.816879,92.763298 232.915024,84.907433 245.425415,81.962715 
	C256.816681,79.281418 267.629608,81.647377 277.589996,87.441376 
	C296.026276,98.165855 296.825165,118.054802 279.413330,130.450256 
	C269.419525,137.564804 258.145142,139.734604 246.198868,137.889786 
	C234.955460,136.153534 225.978500,130.760178 221.139374,119.753937 
	C216.463669,121.224915 212.212677,122.562279 207.181717,123.887993 
	C167.734604,136.278061 128.287491,148.668121 87.636414,161.436340 
	C90.821609,162.108627 92.689201,162.556747 94.576683,162.893356 
	C148.128189,172.443405 201.714050,181.806580 255.210251,191.656631 
	C267.330231,193.888229 277.852692,192.399368 288.508911,185.846512 
	C348.328888,149.061020 408.399170,112.682541 468.378998,76.156860 
	C469.977692,75.183311 471.518890,74.115456 473.856659,72.588951 
	C471.109131,71.941208 469.537445,71.491882 467.936646,71.204895 
	C434.370605,65.187225 400.809052,59.144299 367.229370,53.203678 
	C350.858643,50.307522 334.453003,47.608917 317.413361,44.395660 
	C298.616638,41.010197 279.830414,37.565128 261.020752,34.253090 
	C232.013290,29.145411 233.854599,28.033510 208.215057,43.912193 
	C183.929962,58.952068 159.500763,73.759247 134.526352,88.848488 
	C100.576546,109.476349 66.626732,130.104202 32.676929,150.732056 
	C40.896561,153.241714 48.537010,154.951111 56.271091,155.885437 
	C60.399227,156.384125 64.930428,156.352753 68.866516,155.177155 
	C93.539024,147.808182 118.118469,140.123642 142.681412,132.393204 
	C158.502365,127.414047 174.242538,122.178131 190.803452,117.061516 
M392.086517,146.000488 
	C358.410400,166.448013 324.725616,186.881348 291.063934,207.352615 
	C282.218048,212.732208 272.693817,215.331757 262.445557,213.533157 
	C221.025787,206.263855 179.642746,198.785477 138.242691,191.403625 
	C127.015366,189.401749 115.775932,187.467758 103.611481,185.339828 
	C106.531105,200.105652 109.288239,214.049698 111.935005,228.823837 
	C113.708328,238.133514 114.906273,247.598862 117.374138,256.720642 
	C122.593170,276.011292 134.835632,289.128387 154.302612,294.405273 
	C161.948685,296.477875 170.045242,297.506897 177.980362,297.791199 
	C218.764786,299.252472 259.226715,296.420593 299.037842,286.953003 
	C339.590576,277.309082 376.848541,260.658264 409.096069,233.827072 
	C423.621094,221.741669 430.755890,206.103363 428.970001,187.098267 
	C428.100739,177.848053 426.189819,168.688965 424.596069,159.515457 
	C422.893127,149.713516 421.008301,139.943176 419.072418,129.452057 
	C409.900116,135.165558 401.327637,140.505417 392.086517,146.000488 
M363.499176,311.987671 
	C372.729553,309.170532 381.829590,305.769135 391.221130,303.674652 
	C404.945282,300.613922 415.209747,292.376526 424.557709,282.803650 
	C439.776642,267.218536 444.348663,236.964752 435.190308,220.766403 
	C429.299805,227.575150 423.880127,235.532028 416.858521,241.650421 
	C392.063995,263.255493 363.391357,278.335632 332.384125,288.925110 
	C280.901001,306.507507 227.685532,310.963623 173.733307,308.702484 
	C161.271500,308.180206 148.785965,306.228119 137.696014,299.761749 
	C132.710266,296.854614 128.125977,293.258942 123.154617,289.834564 
	C125.518639,301.772095 126.462234,313.945190 132.840988,324.739990 
	C136.059586,330.186798 139.174713,335.029816 146.746521,332.284210 
	C147.919037,331.859039 149.389786,332.255646 150.722610,332.273346 
	C172.711594,332.565582 194.714447,333.460480 216.685043,332.954559 
	C233.437500,332.568756 250.161407,335.570953 267.049561,331.026550 
	C281.420532,327.159515 296.551880,326.051147 311.387207,324.016724 
	C316.023346,323.380951 321.025604,324.589996 325.453644,323.418091 
	C337.989777,320.100372 350.315399,315.987396 363.499176,311.987671 
M130.751694,346.038025 
	C116.595573,351.401672 111.218903,362.850922 110.034470,376.790955 
	C107.907013,401.829926 112.705132,425.753815 122.611053,448.721741 
	C126.840187,458.527405 131.572067,468.069061 139.705978,475.363739 
	C145.480377,480.542328 152.123169,483.692169 160.098343,483.051453 
	C164.595947,482.690094 165.858765,480.545654 163.909775,476.539062 
	C162.987061,474.642151 161.718613,472.881958 160.420670,471.203796 
	C145.537125,451.960358 137.897598,430.349792 138.906372,405.874207 
	C139.252518,397.475800 141.526382,395.756836 149.410645,398.217377 
	C159.359161,401.322174 168.837387,400.586853 177.432312,394.438263 
	C178.781952,393.472748 180.031921,390.771942 179.675720,389.263672 
	C175.943695,373.461090 168.438049,359.909637 155.345200,349.782166 
	C148.040207,344.131653 140.237885,342.448669 130.751694,346.038025 
M76.891640,325.707336 
	C75.725777,320.417053 74.559914,315.126770 73.465584,310.161072 
	C66.962280,310.616852 61.235363,311.018250 55.168228,311.443481 
	C53.251053,343.556458 43.036682,372.974762 23.965729,399.616486 
	C35.509117,406.811493 46.685455,413.777710 58.176620,420.940155 
	C75.312485,390.979706 81.736664,359.895996 76.891640,325.707336 
M54.024780,298.778503 
	C67.591042,302.737244 81.768013,295.360931 83.892738,283.238159 
	C85.838913,272.134125 79.093842,261.222412 68.592934,258.487122 
	C57.545666,255.609573 46.056934,262.227631 41.810665,273.915070 
	C37.889671,284.707184 41.783615,293.012299 54.024780,298.778503 
M272.181519,97.192947 
	C269.111206,95.938828 266.130676,94.356140 262.954803,93.488327 
	C250.217743,90.007896 239.467499,93.614693 233.992889,102.951881 
	C228.728958,111.929749 231.275177,120.822105 240.860306,124.738495 
	C252.080795,129.323059 263.153046,128.351791 273.122864,121.244308 
	C283.572632,113.794693 283.292938,104.970467 272.181519,97.192947 
z"/>
<path fill="#89B9E6" opacity="1.000000" stroke="none" 
	d="
M318.063171,44.820885 
	C334.453003,47.608917 350.858643,50.307522 367.229370,53.203678 
	C400.809052,59.144299 434.370605,65.187225 467.936646,71.204895 
	C469.537445,71.491882 471.109131,71.941208 473.856659,72.588951 
	C471.518890,74.115456 469.977692,75.183311 468.378998,76.156860 
	C408.399170,112.682541 348.328888,149.061020 288.508911,185.846512 
	C277.852692,192.399368 267.330231,193.888229 255.210251,191.656631 
	C201.714050,181.806580 148.128189,172.443405 94.576683,162.893356 
	C92.689201,162.556747 90.821609,162.108627 87.636414,161.436340 
	C128.287491,148.668121 167.734604,136.278061 207.639175,124.241013 
	C212.515457,127.118507 216.768784,130.007858 221.383209,132.101135 
	C237.139847,139.248917 252.980606,145.609436 270.955109,145.184891 
	C289.116852,144.755905 302.764740,136.830109 313.085083,122.668159 
	C323.144989,108.863594 326.335724,92.906311 326.415344,76.079720 
	C344.081421,80.174110 361.363007,84.245209 378.617950,88.426285 
	C381.885468,89.218056 384.846405,89.361076 385.816772,85.490021 
	C386.795929,81.584045 383.956573,80.217850 380.807129,79.451149 
	C374.546356,77.927025 368.261902,76.498810 362.010437,74.938179 
	C349.289642,71.762527 336.584229,68.525291 323.894775,64.899689 
	C321.965759,57.930939 320.014465,51.375912 318.063171,44.820885 
M405.566681,88.894180 
	C403.131409,88.770897 400.598938,88.230171 398.316223,88.761856 
	C397.566711,88.936424 396.579559,92.608070 397.245270,93.430382 
	C398.780945,95.327209 401.103516,97.025757 403.423279,97.676018 
	C404.709442,98.036545 407.805908,96.327469 408.000793,95.192963 
	C408.315063,93.363579 406.906281,91.238190 405.566681,88.894180 
z"/>
<path fill="#95CBFB" opacity="1.000000" stroke="none" 
	d="
M112.045364,227.993744 
	C109.288239,214.049698 106.531105,200.105652 103.611481,185.339828 
	C115.775932,187.467758 127.015366,189.401749 138.242691,191.403625 
	C179.642746,198.785477 221.025787,206.263855 262.445557,213.533157 
	C272.693817,215.331757 282.218048,212.732208 291.063934,207.352615 
	C324.725616,186.881348 358.410400,166.448013 392.707642,146.181839 
	C393.470032,147.313431 393.901978,148.327179 393.710266,149.204681 
	C388.053070,175.102890 378.968842,199.580215 362.947083,221.002594 
	C352.759949,234.623596 340.669617,246.053802 324.400726,252.296524 
	C312.950531,256.690216 301.010376,258.872528 288.867798,258.889679 
	C263.933014,258.924835 238.996475,258.387848 214.062424,257.979126 
	C201.110535,257.766815 188.162598,257.318420 175.212463,256.992950 
	C171.481308,256.899200 167.748703,256.862122 163.690521,256.718628 
	C159.288834,252.918884 154.845932,249.515732 151.273727,245.363495 
	C149.078644,242.812012 149.010880,237.522125 143.985626,239.254929 
	C138.712036,241.073334 141.373459,245.463043 141.638214,248.959656 
	C136.215378,245.807419 130.954498,242.977478 126.138008,239.527176 
	C121.213509,235.999512 116.724831,231.863464 112.045364,227.993744 
z"/>
<path fill="#89B9E6" opacity="1.000000" stroke="none" 
	d="
M111.990189,228.408783 
	C116.724831,231.863464 121.213509,235.999512 126.138008,239.527176 
	C130.954498,242.977478 136.215378,245.807419 141.838791,249.230377 
	C147.521484,258.791962 155.328110,265.101715 165.474426,267.169922 
	C179.562561,270.041626 193.882538,271.826355 208.147156,273.751038 
	C212.388702,274.323334 216.783813,273.937134 221.097046,273.739197 
	C224.307098,273.591888 227.224487,272.530579 227.013229,268.538574 
	C226.816879,264.828522 223.988922,264.169312 220.953964,264.112457 
	C218.794189,264.071930 216.632339,264.157288 214.471390,264.160492 
	C197.291855,264.185913 180.299927,262.919647 164.016769,256.799042 
	C167.748703,256.862122 171.481308,256.899200 175.212463,256.992950 
	C188.162598,257.318420 201.110535,257.766815 214.062424,257.979126 
	C238.996475,258.387848 263.933014,258.924835 288.867798,258.889679 
	C301.010376,258.872528 312.950531,256.690216 324.400726,252.296524 
	C340.669617,246.053802 352.759949,234.623596 362.947083,221.002594 
	C378.968842,199.580215 388.053070,175.102890 393.710266,149.204681 
	C393.901978,148.327179 393.470032,147.313431 393.041992,146.104248 
	C401.327637,140.505417 409.900116,135.165558 419.072418,129.452057 
	C421.008301,139.943176 422.893127,149.713516 424.596069,159.515457 
	C426.189819,168.688965 428.100739,177.848053 428.970001,187.098267 
	C430.755890,206.103363 423.621094,221.741669 409.096069,233.827072 
	C376.848541,260.658264 339.590576,277.309082 299.037842,286.953003 
	C259.226715,296.420593 218.764786,299.252472 177.980362,297.791199 
	C170.045242,297.506897 161.948685,296.477875 154.302612,294.405273 
	C134.835632,289.128387 122.593170,276.011292 117.374138,256.720642 
	C114.906273,247.598862 113.708328,238.133514 111.990189,228.408783 
M248.517380,268.002777 
	C251.150497,271.775269 255.516525,272.973877 259.236847,270.945587 
	C262.482086,269.176300 262.859253,265.333923 260.001587,263.154572 
	C256.045532,260.137604 249.737762,262.361267 248.517380,268.002777 
z"/>
<path fill="#94CAFB" opacity="1.000000" stroke="none" 
	d="
M326.021606,76.094574 
	C326.335724,92.906311 323.144989,108.863594 313.085083,122.668159 
	C302.764740,136.830109 289.116852,144.755905 270.955109,145.184891 
	C252.980606,145.609436 237.139847,139.248917 221.383209,132.101135 
	C216.768784,130.007858 212.515457,127.118507 208.029175,124.246834 
	C212.212677,122.562279 216.463669,121.224915 221.139374,119.753937 
	C225.978500,130.760178 234.955460,136.153534 246.198868,137.889786 
	C258.145142,139.734604 269.419525,137.564804 279.413330,130.450256 
	C296.825165,118.054802 296.026276,98.165855 277.589996,87.441376 
	C267.629608,81.647377 256.816681,79.281418 245.425415,81.962715 
	C232.915024,84.907433 224.816879,92.763298 220.923615,105.094597 
	C220.394470,106.770576 218.674286,108.771278 217.073395,109.291412 
	C208.391693,112.112144 199.574188,114.514832 190.198624,116.789017 
	C171.440842,107.233932 153.287888,97.951340 135.134933,88.668762 
	C159.500763,73.759247 183.929962,58.952068 208.215057,43.912193 
	C233.854599,28.033510 232.013290,29.145411 261.020752,34.253090 
	C279.830414,37.565128 298.616638,41.010197 317.738281,44.608276 
	C320.014465,51.375912 321.965759,57.930939 323.500122,64.832748 
	C321.775024,64.974998 320.439301,64.876625 319.164124,64.545319 
	C315.821594,63.676910 313.001404,64.962929 312.827301,68.107956 
	C312.726654,69.925911 315.048492,72.608734 316.960022,73.631546 
	C319.649750,75.070770 322.970642,75.330475 326.021606,76.094574 
z"/>
<path fill="#E8B849" opacity="1.000000" stroke="none" 
	d="
M452.977509,299.201477 
	C458.727417,300.248596 463.288757,303.291107 466.017334,308.343262 
	C476.083282,326.981293 485.437836,345.971680 488.557709,367.232971 
	C491.590363,387.899719 488.946625,407.677429 478.393890,426.111725 
	C473.091827,435.373749 465.497711,439.024689 454.834290,438.596436 
	C424.704712,437.386414 394.553253,436.710693 364.408447,435.897491 
	C358.131470,435.728149 351.846039,435.872864 345.176758,435.872864 
	C346.909180,417.531158 345.460754,400.668427 343.354889,383.435059 
	C346.845703,383.064178 349.838531,383.242737 352.824982,383.167419 
	C361.710144,382.943268 370.798035,383.717987 379.433685,382.105194 
	C397.313324,378.765930 411.650604,368.809326 424.019958,355.598541 
	C439.092651,339.500458 448.316956,320.563141 452.977509,299.201477 
M456.053894,368.496124 
	C455.335144,367.003326 454.961060,365.096863 453.802673,364.131714 
	C452.594360,363.124908 450.265839,362.210907 449.089783,362.737244 
	C447.656128,363.378876 446.386200,365.453003 446.033569,367.116913 
	C445.734039,368.530334 446.948547,370.216797 447.300751,371.824585 
	C448.675110,378.098053 450.888611,384.361298 451.074768,390.678894 
	C451.324768,399.162811 446.626587,403.980042 438.112549,404.948608 
	C428.711700,406.018066 419.228607,406.420258 409.770569,406.901825 
	C406.418060,407.072510 403.433624,407.751617 403.392609,411.558655 
	C403.351196,415.403320 406.286469,416.346466 409.687866,416.177246 
	C418.656860,415.731110 427.662231,415.680847 436.590149,414.819855 
	C451.329803,413.398346 460.355316,404.950348 460.548309,391.006592 
	C460.648590,383.762939 457.821442,376.478790 456.053894,368.496124 
M385.984161,406.389313 
	C382.558350,405.737457 379.498199,405.966095 378.889191,410.253235 
	C378.361450,413.968323 380.979919,415.067169 383.955414,415.675262 
	C387.086029,416.315033 390.216553,416.352325 391.338165,412.689453 
	C392.482727,408.951569 390.125183,407.243561 385.984161,406.389313 
z"/>
<path fill="#3A60E2" opacity="1.000000" stroke="none" 
	d="
M363.111572,312.087677 
	C350.315399,315.987396 337.989777,320.100372 325.453644,323.418091 
	C321.025604,324.589996 316.023346,323.380951 311.387207,324.016724 
	C296.551880,326.051147 281.420532,327.159515 267.049561,331.026550 
	C250.161407,335.570953 233.437500,332.568756 216.685043,332.954559 
	C194.714447,333.460480 172.711594,332.565582 150.722610,332.273346 
	C149.389786,332.255646 147.919037,331.859039 146.746521,332.284210 
	C139.174713,335.029816 136.059586,330.186798 132.840988,324.739990 
	C126.462234,313.945190 125.518639,301.772095 123.154617,289.834564 
	C128.125977,293.258942 132.710266,296.854614 137.696014,299.761749 
	C148.785965,306.228119 161.271500,308.180206 173.733307,308.702484 
	C227.685532,310.963623 280.901001,306.507507 332.384125,288.925110 
	C363.391357,278.335632 392.063995,263.255493 416.858521,241.650421 
	C423.880127,235.532028 429.299805,227.575150 435.190308,220.766403 
	C444.348663,236.964752 439.776642,267.218536 424.557709,282.803650 
	C415.209747,292.376526 404.945282,300.613922 391.221130,303.674652 
	C381.829590,305.769135 372.729553,309.170532 363.111572,312.087677 
z"/>
<path fill="#FEC84D" opacity="1.000000" stroke="none" 
	d="
M194.475952,420.944366 
	C193.540024,410.862030 193.233490,400.671967 191.530304,390.720947 
	C188.476547,372.879150 180.307938,357.459564 166.645294,344.481049 
	C168.003860,344.254089 168.872833,343.975281 169.739090,343.983521 
	C199.514481,344.266907 229.289978,344.550690 259.063751,344.959595 
	C260.627258,344.981049 263.073944,345.669922 263.597168,346.768463 
	C272.094727,364.608032 280.589142,382.475067 283.766724,402.572754 
	C281.600494,403.854736 279.832855,404.702118 278.075348,405.570038 
	C271.388489,408.872070 264.922394,412.756744 257.979126,415.378510 
	C237.397278,423.150055 216.161545,424.996124 194.475952,420.944366 
z"/>
<path fill="#FEC84D" opacity="1.000000" stroke="none" 
	d="
M452.536194,299.089905 
	C448.316956,320.563141 439.092651,339.500458 424.019958,355.598541 
	C411.650604,368.809326 397.313324,378.765930 379.433685,382.105194 
	C370.798035,383.717987 361.710144,382.943268 352.824982,383.167419 
	C349.838531,383.242737 346.845703,383.064178 343.390320,383.007324 
	C338.144012,367.024841 333.363190,351.036713 328.399841,334.438263 
	C335.280487,332.325470 343.304657,329.850342 351.335602,327.397430 
	C381.158630,318.288574 410.962524,309.115631 440.836639,300.177368 
	C444.390808,299.113953 448.332703,299.346497 452.536194,299.089905 
z"/>
<path fill="#FDFDFD" opacity="1.000000" stroke="none" 
	d="
M131.133484,345.937073 
	C140.237885,342.448669 148.040207,344.131653 155.345200,349.782166 
	C168.438049,359.909637 175.943695,373.461090 179.675720,389.263672 
	C180.031921,390.771942 178.781952,393.472748 177.432312,394.438263 
	C168.837387,400.586853 159.359161,401.322174 149.410645,398.217377 
	C141.526382,395.756836 139.252518,397.475800 138.906372,405.874207 
	C137.897598,430.349792 145.537125,451.960358 160.420670,471.203796 
	C161.718613,472.881958 162.987061,474.642151 163.909775,476.539062 
	C165.858765,480.545654 164.595947,482.690094 160.098343,483.051453 
	C152.123169,483.692169 145.480377,480.542328 139.705978,475.363739 
	C131.572067,468.069061 126.840187,458.527405 122.611053,448.721741 
	C112.705132,425.753815 107.907013,401.829926 110.034470,376.790955 
	C111.218903,362.850922 116.595573,351.401672 131.133484,345.937073 
z"/>
<path fill="#88B9E5" opacity="1.000000" stroke="none" 
	d="
M134.830643,88.758621 
	C153.287888,97.951340 171.440842,107.233932 189.806366,116.786911 
	C174.242538,122.178131 158.502365,127.414047 142.681412,132.393204 
	C118.118469,140.123642 93.539024,147.808182 68.866516,155.177155 
	C64.930428,156.352753 60.399227,156.384125 56.271091,155.885437 
	C48.537010,154.951111 40.896561,153.241714 32.676929,150.732056 
	C66.626732,130.104202 100.576546,109.476349 134.830643,88.758621 
z"/>
<path fill="#E8B749" opacity="1.000000" stroke="none" 
	d="
M194.386139,421.408691 
	C216.161545,424.996124 237.397278,423.150055 257.979126,415.378510 
	C264.922394,412.756744 271.388489,408.872070 278.075348,405.570038 
	C279.832855,404.702118 281.600494,403.854736 283.739441,402.988464 
	C287.610779,416.422577 287.554077,429.951050 284.802399,443.477905 
	C284.548950,444.723694 282.911987,446.241486 281.612885,446.639984 
	C250.927719,456.052399 220.200912,465.329254 189.476379,474.613190 
	C189.211136,474.693359 188.873184,474.533020 188.153976,474.419312 
	C195.810089,457.514191 193.655716,439.541534 194.386139,421.408691 
z"/>
<path fill="#94C9FA" opacity="1.000000" stroke="none" 
	d="
M76.934883,326.143860 
	C81.736664,359.895996 75.312485,390.979706 58.176620,420.940155 
	C46.685455,413.777710 35.509117,406.811493 23.965729,399.616486 
	C43.036682,372.974762 53.251053,343.556458 55.168228,311.443481 
	C61.235363,311.018250 66.962280,310.616852 73.465584,310.161072 
	C74.559914,315.126770 75.725777,320.417053 76.934883,326.143860 
z"/>
<path fill="#E7E7E8" opacity="1.000000" stroke="none" 
	d="
M330.767883,381.974396 
	C334.880585,400.661163 335.590149,419.502106 333.517517,438.864105 
	C321.182007,441.069946 308.963715,443.254852 296.000092,445.573029 
	C299.303741,428.116455 298.183929,411.369629 294.453430,394.334137 
	C296.259735,393.106354 297.729004,392.376465 299.125427,391.526825 
	C308.851074,385.609192 319.127960,381.540833 330.767883,381.974396 
z"/>
<path fill="#FDFDFD" opacity="1.000000" stroke="none" 
	d="
M330.788818,381.585449 
	C319.127960,381.540833 308.851074,385.609192 299.125427,391.526825 
	C297.729004,392.376465 296.259735,393.106354 294.478271,393.937256 
	C287.701782,376.434082 281.271149,358.885345 274.661346,340.847534 
	C281.679016,339.729736 289.584808,338.458374 297.495087,337.215332 
	C301.922150,336.519684 306.379852,335.993195 310.779144,335.156067 
	C313.493408,334.639618 315.117706,335.252747 316.053131,338.025604 
	C320.914276,352.435364 325.880249,366.809753 330.788818,381.585449 
z"/>
<path fill="#3D67F6" opacity="1.000000" stroke="none" 
	d="
M53.667542,298.610107 
	C41.783615,293.012299 37.889671,284.707184 41.810665,273.915070 
	C46.056934,262.227631 57.545666,255.609573 68.592934,258.487122 
	C79.093842,261.222412 85.838913,272.134125 83.892738,283.238159 
	C81.768013,295.360931 67.591042,302.737244 53.667542,298.610107 
z"/>
<path fill="#3D67F5" opacity="1.000000" stroke="none" 
	d="
M272.487549,97.402328 
	C283.292938,104.970467 283.572632,113.794693 273.122864,121.244308 
	C263.153046,128.351791 252.080795,129.323059 240.860306,124.738495 
	C231.275177,120.822105 228.728958,111.929749 233.992889,102.951881 
	C239.467499,93.614693 250.217743,90.007896 262.954803,93.488327 
	C266.130676,94.356140 269.111206,95.938828 272.487549,97.402328 
z"/>
<path fill="#EBECED" opacity="1.000000" stroke="none" 
	d="
M326.415344,76.079720 
	C322.970642,75.330475 319.649750,75.070770 316.960022,73.631546 
	C315.048492,72.608734 312.726654,69.925911 312.827301,68.107956 
	C313.001404,64.962929 315.821594,63.676910 319.164124,64.545319 
	C320.439301,64.876625 321.775024,64.974998 323.477844,65.246475 
	C336.584229,68.525291 349.289642,71.762527 362.010437,74.938179 
	C368.261902,76.498810 374.546356,77.927025 380.807129,79.451149 
	C383.956573,80.217850 386.795929,81.584045 385.816772,85.490021 
	C384.846405,89.361076 381.885468,89.218056 378.617950,88.426285 
	C361.363007,84.245209 344.081421,80.174110 326.415344,76.079720 
z"/>
<path fill="#E4E7EA" opacity="1.000000" stroke="none" 
	d="
M405.895996,89.066010 
	C406.906281,91.238190 408.315063,93.363579 408.000793,95.192963 
	C407.805908,96.327469 404.709442,98.036545 403.423279,97.676018 
	C401.103516,97.025757 398.780945,95.327209 397.245270,93.430382 
	C396.579559,92.608070 397.566711,88.936424 398.316223,88.761856 
	C400.598938,88.230171 403.131409,88.770897 405.895996,89.066010 
z"/>
<path fill="#FBFDFE" opacity="1.000000" stroke="none" 
	d="
M163.690521,256.718628 
	C180.299927,262.919647 197.291855,264.185913 214.471390,264.160492 
	C216.632339,264.157288 218.794189,264.071930 220.953964,264.112457 
	C223.988922,264.169312 226.816879,264.828522 227.013229,268.538574 
	C227.224487,272.530579 224.307098,273.591888 221.097046,273.739197 
	C216.783813,273.937134 212.388702,274.323334 208.147156,273.751038 
	C193.882538,271.826355 179.562561,270.041626 165.474426,267.169922 
	C155.328110,265.101715 147.521484,258.791962 142.195816,249.280334 
	C141.373459,245.463043 138.712036,241.073334 143.985626,239.254929 
	C149.010880,237.522125 149.078644,242.812012 151.273727,245.363495 
	C154.845932,249.515732 159.288834,252.918884 163.690521,256.718628 
z"/>
<path fill="#F8FBFE" opacity="1.000000" stroke="none" 
	d="
M248.409027,267.641174 
	C249.737762,262.361267 256.045532,260.137604 260.001587,263.154572 
	C262.859253,265.333923 262.482086,269.176300 259.236847,270.945587 
	C255.516525,272.973877 251.150497,271.775269 248.409027,267.641174 
z"/>
<path fill="#FEFDFA" opacity="1.000000" stroke="none" 
	d="
M456.185303,368.854523 
	C457.821442,376.478790 460.648590,383.762939 460.548309,391.006592 
	C460.355316,404.950348 451.329803,413.398346 436.590149,414.819855 
	C427.662231,415.680847 418.656860,415.731110 409.687866,416.177246 
	C406.286469,416.346466 403.351196,415.403320 403.392609,411.558655 
	C403.433624,407.751617 406.418060,407.072510 409.770569,406.901825 
	C419.228607,406.420258 428.711700,406.018066 438.112549,404.948608 
	C446.626587,403.980042 451.324768,399.162811 451.074768,390.678894 
	C450.888611,384.361298 448.675110,378.098053 447.300751,371.824585 
	C446.948547,370.216797 445.734039,368.530334 446.033569,367.116913 
	C446.386200,365.453003 447.656128,363.378876 449.089783,362.737244 
	C450.265839,362.210907 452.594360,363.124908 453.802673,364.131714 
	C454.961060,365.096863 455.335144,367.003326 456.185303,368.854523 
z"/>
<path fill="#FEFBF6" opacity="1.000000" stroke="none" 
	d="
M386.365295,406.492554 
	C390.125183,407.243561 392.482727,408.951569 391.338165,412.689453 
	C390.216553,416.352325 387.086029,416.315033 383.955414,415.675262 
	C380.979919,415.067169 378.361450,413.968323 378.889191,410.253235 
	C379.498199,405.966095 382.558350,405.737457 386.365295,406.492554 
z"/>
</svg>